<?xml version="1.0" encoding="UTF-8" standalone="no"?>
<svg
   width="352.38873"
   height="93.929237"
   viewBox="0 0 352.38873 93.929238"
   version="1.1"
   id="svg22"
   sodipodi:docname="dhbw_logo.svg"
   inkscape:version="1.3.2 (091e20e, 2023-11-25, custom)"
   xmlns:inkscape="http://www.inkscape.org/namespaces/inkscape"
   xmlns:sodipodi="http://sodipodi.sourceforge.net/DTD/sodipodi-0.dtd"
   xmlns="http://www.w3.org/2000/svg"
   xmlns:svg="http://www.w3.org/2000/svg"
   xmlns:rdf="http://www.w3.org/1999/02/22-rdf-syntax-ns#"
   xmlns:cc="http://creativecommons.org/ns#"
   xmlns:dc="http://purl.org/dc/elements/1.1/">
  <defs
     id="defs22" />
  <sodipodi:namedview
     id="namedview22"
     pagecolor="#505050"
     bordercolor="#ffffff"
     borderopacity="1"
     inkscape:showpageshadow="0"
     inkscape:pageopacity="0"
     inkscape:pagecheckerboard="1"
     inkscape:deskcolor="#505050"
     inkscape:zoom="2.485891"
     inkscape:cx="136.97302"
     inkscape:cy="100.36643"
     inkscape:window-width="1920"
     inkscape:window-height="991"
     inkscape:window-x="-9"
     inkscape:window-y="-9"
     inkscape:window-maximized="1"
     inkscape:current-layer="svg22" />
  <!-- Generator: Sketch 63.1 (92452) - https://sketch.com -->
  <title
     id="title1">Logo DHBW Stuttgart</title>
  <desc
     id="desc1">Created with Sketch.</desc>
  <g
     id="Menu"
     stroke="none"
     stroke-width="1"
     fill="none"
     fill-rule="evenodd"
     transform="translate(0,16.427075)">
    <g
       id="01-Menu"
       transform="translate(-155,-22)">
      <g
         id="logo-dhbw-Stuttgart"
         transform="translate(155,22)">
        <g
           id="Group"
           transform="translate(200,16)"
           fill="#5c6971"
           fill-rule="nonzero">
          <path
             d="m 16.258326,21.273553 c 0,1.171644 -0.210289,2.25475 -0.630864,3.243417 -0.419589,0.992602 -1.012937,1.84256 -1.784981,2.554794 -0.770068,0.712234 -1.695138,1.270019 -2.774222,1.673355 -1.0790837,0.404321 -2.2756523,0.605989 -3.5916802,0.605989 -0.7562471,0 -1.5124942,-0.06099 -2.2687413,-0.186912 C 4.4496158,29.03926 3.749643,28.885795 3.1069317,28.703802 2.4632331,28.520825 1.9093759,28.341783 1.4473346,28.157822 0.98430596,27.976812 0.65455853,27.831217 0.46006678,27.720054 L 1.3426842,25.03934 c 0.1678355,0.112148 0.4689521,0.266596 0.90335,0.461378 0.4324232,0.195766 0.9379044,0.390548 1.5124942,0.587298 0.5736026,0.195766 1.1896577,0.363003 1.8481653,0.501711 0.6575203,0.14166 1.2814735,0.210522 1.8698851,0.210522 0.8678084,0 1.6447881,-0.132806 2.3309392,-0.397434 0.685164,-0.265612 1.274563,-0.628615 1.764248,-1.087042 0.488697,-0.461377 0.85991,-0.99752 1.11265,-1.612363 0.252741,-0.612875 0.379111,-1.255262 0.379111,-1.925195 0,-0.948333 -0.303091,-1.800259 -0.90335,-2.55381 C 11.557944,18.470854 10.794786,17.759604 9.8716904,17.089672 8.9466205,16.419739 7.9593527,15.76358 6.9098871,15.122176 5.8604215,14.480772 4.8731537,13.797067 3.9480838,13.071061 3.0240012,12.346039 2.2608432,11.558056 1.6595971,10.706131 1.0573638,9.8551884 0.75624711,8.8852128 0.75624711,7.7971874 0.75624711,6.736707 0.95172613,5.7608288 1.3446587,4.8666018 1.7356167,3.9743423 2.2835503,3.2001326 2.9835232,2.5439726 3.683496,1.8887963 4.5236609,1.3723286 5.5040178,0.99555307 6.4833874,0.6177938 7.5624711,0.42989792 8.738307,0.42989792 c 0.6723294,0 1.35848,0.0629599 2.058453,0.18789588 0.699973,0.12591976 1.357493,0.27249823 1.974536,0.4397354 0.615068,0.1672372 1.139307,0.3354581 1.575679,0.5026953 0.433411,0.1672372 0.734527,0.2931569 0.902363,0.3767755 l -0.88163,2.5951275 C 14.225541,4.4219477 13.938246,4.2743855 13.505823,4.0933758 13.072413,3.9123662 12.580753,3.7382428 12.036769,3.5700218 11.489822,3.4027847 10.922143,3.2562062 10.332744,3.1312702 9.7443329,3.0053504 9.2121955,2.9433743 8.738307,2.9433743 c -1.5687685,0 -2.7673116,0.390548 -3.5926674,1.171644 -0.8273304,0.781096 -1.2400083,1.8415764 -1.2400083,3.1804576 0,0.8381534 0.3080275,1.5976069 0.9260571,2.2813118 0.6170424,0.6837053 1.3782258,1.3536373 2.2884867,2.0088133 0.9092737,0.65616 1.8965414,1.31232 2.9608159,1.967497 1.064275,0.65616 2.050555,1.360523 2.961803,2.11309 0.909274,0.754535 1.672432,1.590721 2.289474,2.512493 0.617043,0.918821 0.926058,1.950772 0.926058,3.094872 z"
             id="Path" />
          <path
             d="m 29.977398,28.91334 c -0.251753,0.06886 -0.532137,0.131822 -0.840164,0.187896 -0.308028,0.05607 -0.637775,0.109196 -0.987268,0.167237 -0.349493,0.05607 -0.666406,0.08263 -0.944815,0.08263 -0.841153,0 -1.547049,-0.124936 -2.121639,-0.376775 C 24.50991,28.724461 24.047868,28.382116 23.697388,27.948283 23.347895,27.517402 23.097129,27.02356 22.941141,26.462824 22.787127,25.906022 22.71012,25.333481 22.71012,24.747167 V 10.22311 H 19.182613 V 7.8375211 H 22.71012 V 2.1445709 h 2.900593 v 5.6929502 h 4.158372 V 10.22311 h -4.158372 v 14.231884 c 0,0.587297 0.132294,1.150985 0.398856,1.695982 0.266563,0.54598 0.719719,0.81651 1.365392,0.81651 0.390958,0 0.826343,-0.07673 1.301219,-0.229213 0.475863,-0.152481 0.799686,-0.285287 0.966535,-0.397434 l 0.882617,2.387557 c -0.113536,0.05214 -0.295193,0.114114 -0.547934,0.184944 z"
             id="path1" />
          <path
             d="m 47.175603,28.85038 v -2.971903 c -0.08392,0.14166 -0.272486,0.404321 -0.566692,0.795853 -0.294205,0.391531 -0.67924,0.783063 -1.155103,1.171644 -0.474876,0.390548 -1.02972,0.739778 -1.659597,1.045724 -0.630864,0.306929 -1.323926,0.45941 -2.079186,0.45941 -1.14918,0 -2.136447,-0.201668 -2.961803,-0.605989 -0.826344,-0.403336 -1.504596,-0.933577 -2.035747,-1.589737 -0.532137,-0.65616 -0.926057,-1.415613 -1.175835,-2.280328 -0.251754,-0.865698 -0.378124,-1.757958 -0.378124,-2.679729 V 7.8375211 h 2.900593 V 21.943485 c 0,0.642387 0.07503,1.263133 0.229046,1.863219 0.153026,0.600086 0.385034,1.130326 0.693062,1.590721 0.308027,0.461377 0.713794,0.838153 1.218288,1.129342 0.503507,0.293157 1.119562,0.439736 1.846191,0.439736 0.674304,0 1.303193,-0.175107 1.891605,-0.524338 0.589399,-0.348247 1.104753,-0.745681 1.553959,-1.193286 0.447233,-0.445638 0.803637,-0.891276 1.070199,-1.337898 0.267549,-0.445638 0.412678,-0.754535 0.441308,-0.921772 V 7.8375211 h 2.898619 V 28.85038 Z"
             id="path2" />
          <path
             d="m 65.755982,28.91334 c -0.25274,0.06886 -0.532137,0.131822 -0.842139,0.187896 -0.308028,0.05607 -0.637775,0.109196 -0.987268,0.167237 -0.349493,0.05607 -0.665418,0.08263 -0.944815,0.08263 -0.841152,0 -1.547049,-0.124936 -2.119664,-0.376775 -0.57459,-0.249872 -1.037618,-0.592217 -1.386124,-1.02605 -0.349493,-0.430881 -0.603221,-0.924723 -0.756247,-1.485459 -0.154014,-0.556802 -0.231021,-1.129343 -0.231021,-1.715657 V 10.22311 H 54.960209 V 7.8375211 h 3.528495 V 2.1445709 h 2.899606 v 5.6929502 h 4.159359 V 10.22311 H 61.38831 v 14.231884 c 0,0.587297 0.133281,1.150985 0.397869,1.695982 0.266562,0.54598 0.720705,0.81651 1.365391,0.81651 0.390958,0 0.826343,-0.07673 1.302206,-0.229213 0.474876,-0.152481 0.7987,-0.285287 0.966535,-0.397434 l 0.882618,2.387557 c -0.112549,0.05214 -0.295193,0.114114 -0.546947,0.184944 z"
             id="path3" />
          <path
             d="m 80.702229,28.91334 c -0.252741,0.06886 -0.532137,0.131822 -0.841152,0.187896 -0.308028,0.05607 -0.637775,0.109196 -0.987268,0.167237 -0.349493,0.05607 -0.666406,0.08263 -0.944815,0.08263 -0.841152,0 -1.547049,-0.124936 -2.120651,-0.376775 -0.57459,-0.249872 -1.036631,-0.592217 -1.386124,-1.02605 -0.349493,-0.430881 -0.601246,-0.924723 -0.756247,-1.485459 -0.154014,-0.556802 -0.231021,-1.129343 -0.231021,-1.715657 V 10.22311 H 69.907443 V 7.8375211 h 3.527508 V 2.1445709 h 2.899606 v 5.6929502 h 4.159359 V 10.22311 h -4.159359 v 14.231884 c 0,0.587297 0.133281,1.150985 0.398856,1.695982 0.265575,0.54598 0.719718,0.81651 1.365391,0.81651 0.390958,0 0.826343,-0.07673 1.302206,-0.229213 0.474876,-0.152481 0.7987,-0.285287 0.966535,-0.397434 l 0.88163,2.387557 c -0.112548,0.05214 -0.294205,0.114114 -0.546946,0.184944 z"
             id="path4" />
          <path
             d="m 98.287442,9.8876521 c 0.109587,0.1406759 0.265575,0.3492309 0.462042,0.6286149 0.195479,0.279385 0.385034,0.621729 0.566691,1.026049 0.181658,0.404321 0.34357,0.865699 0.482775,1.380199 0.140192,0.516468 0.21029,1.06835 0.21029,1.654664 0,1.060481 -0.183634,2.058001 -0.546949,2.992562 -0.364302,0.934561 -0.868795,1.751072 -1.512494,2.448549 -0.642711,0.697477 -1.414755,1.24936 -2.310207,1.65368 -0.896439,0.404321 -1.862974,0.606973 -2.898618,0.606973 -0.308027,0 -0.637775,0.05706 -0.987268,0.167237 -0.35048,0.112148 -0.67924,0.250856 -0.987267,0.419077 -0.308028,0.166253 -0.566692,0.369889 -0.77698,0.605989 -0.210288,0.238067 -0.314938,0.482036 -0.314938,0.732892 0,0.613859 0.286307,1.116554 0.860897,1.507102 0.573603,0.390548 1.309117,0.586314 2.205556,0.586314 1.147205,0 2.253933,0.13379 3.31722,0.397434 1.063287,0.265612 2.001192,0.655177 2.815688,1.170661 0.811534,0.516467 1.45622,1.143115 1.93208,1.882893 0.47488,0.739779 0.71478,1.582851 0.71478,2.532168 0,0.726006 -0.21028,1.451028 -0.63086,2.177034 -0.42058,0.725023 -1.014911,1.394955 -1.786954,2.009798 -0.768095,0.612875 -1.695139,1.108684 -2.772248,1.485459 -1.079084,0.376776 -2.27664,0.564672 -3.59168,0.564672 -1.175836,0 -2.277627,-0.153465 -3.298462,-0.460394 -1.022809,-0.30693 -1.898516,-0.717153 -2.625145,-1.234604 -0.728604,-0.516468 -1.301219,-1.129343 -1.721795,-1.84256 -0.420576,-0.71125 -0.630864,-1.48546 -0.630864,-2.32263 0,-0.80864 0.216212,-1.52776 0.650609,-2.155392 0.433411,-0.626647 0.944816,-1.150985 1.534214,-1.570062 0.588412,-0.418093 1.189658,-0.745681 1.806701,-0.983748 0.615067,-0.236099 1.118574,-0.368905 1.510519,-0.395466 -0.195479,-0.02754 -0.463028,-0.104278 -0.798699,-0.230197 -0.335671,-0.12592 -0.665419,-0.29906 -0.987268,-0.522371 -0.321849,-0.223311 -0.602233,-0.5145 -0.841152,-0.87947 -0.236945,-0.363003 -0.356404,-0.796836 -0.356404,-1.297564 0,-0.335458 0.111561,-0.663046 0.336658,-0.983748 0.22411,-0.318735 0.488698,-0.606973 0.797713,-0.857829 0.308027,-0.251839 0.62494,-0.461378 0.945802,-0.628615 0.320862,-0.167237 0.59631,-0.2784 0.818445,-0.334474 -0.390958,-0.140676 -0.839177,-0.369889 -1.342684,-0.691575 -0.504494,-0.319718 -0.987268,-0.76634 -1.450296,-1.338881 -0.462042,-0.570574 -0.846089,-1.283791 -1.155104,-2.134733 -0.308027,-0.850943 -0.462041,-1.876008 -0.462041,-3.076181 0,-0.893243 0.188568,-1.77173 0.566692,-2.638412 0.378123,-0.864715 0.895452,-1.638924 1.553959,-2.3226294 0.657521,-0.6827211 1.427589,-1.2346038 2.310207,-1.6536805 0.883604,-0.418093 1.82842,-0.6276313 2.83642,-0.6276313 0.642711,0 1.252843,0.061976 1.827433,0.1878959 0.573602,0.124936 0.987267,0.2292133 1.239021,0.3138156 h 5.966063 v 2.0501311 z m 0.294206,22.3940419 c 0,-1.087042 -0.554844,-1.988155 -1.660584,-2.699405 -1.106727,-0.71125 -2.498775,-1.067367 -4.178117,-1.067367 -0.70096,0 -1.380201,0.09936 -2.037721,0.293157 -0.65752,0.194782 -1.239021,0.461378 -1.743515,0.796836 -0.503506,0.334474 -0.910261,0.730925 -1.218288,1.193287 -0.308028,0.460394 -0.461054,0.955219 -0.461054,1.485459 0,0.53024 0.132294,1.040806 0.397869,1.528745 0.265575,0.486955 0.637775,0.922755 1.113638,1.297563 0.474875,0.375792 1.048478,0.676819 1.721795,0.899146 0.673316,0.224295 1.413767,0.334475 2.227276,0.334475 0.840165,0 1.610233,-0.11805 2.310206,-0.35415 0.699973,-0.236099 1.316028,-0.544996 1.848166,-0.921772 0.53115,-0.376775 0.945802,-0.809624 1.239021,-1.297563 0.294205,-0.490891 0.441308,-0.984732 0.441308,-1.488411 z M 97.069154,14.576196 c 0,-1.535631 -0.386022,-2.769251 -1.15609,-3.70578 -0.770069,-0.9335765 -1.82842,-1.4018406 -3.171105,-1.4018406 -0.674303,0 -1.28246,0.1396923 -1.829407,0.418093 -0.545959,0.2793846 -1.001089,0.6561596 -1.365391,1.1303266 -0.364302,0.474167 -0.642711,1.019163 -0.841152,1.633022 -0.195479,0.612875 -0.293219,1.254279 -0.293219,1.925195 0,0.753551 0.07602,1.471687 0.230034,2.155392 0.152039,0.683705 0.398856,1.275921 0.734527,1.7796 0.335671,0.501712 0.77698,0.899146 1.322939,1.192303 0.546946,0.293157 1.224212,0.438751 2.03772,0.438751 0.782904,0 1.448322,-0.173139 1.995269,-0.52237 0.547933,-0.348247 0.994178,-0.787982 1.344658,-1.318222 0.349493,-0.53024 0.601246,-1.124424 0.756247,-1.779601 0.156976,-0.653208 0.23497,-1.302482 0.23497,-1.944869 z"
             id="Shape" />
          <path
             d="m 117.64381,28.85038 v -2.971903 c -0.0839,0.167238 -0.28729,0.446622 -0.60914,0.839137 -0.32086,0.389565 -0.74934,0.780113 -1.28049,1.170661 -0.53213,0.389564 -1.14128,0.730925 -1.82842,1.025065 -0.68713,0.293157 -1.42067,0.437768 -2.20555,0.437768 -1.84718,0 -3.36659,-0.5145 -4.55723,-1.547436 -1.19064,-1.032935 -1.78498,-2.48298 -1.78498,-4.353085 0,-0.892259 0.25866,-1.717624 0.77698,-2.470191 0.51535,-0.753551 1.17485,-1.408728 1.97453,-1.967497 0.79772,-0.556801 1.66553,-1.031951 2.60343,-1.422499 0.93889,-0.390548 1.81361,-0.669933 2.62613,-0.83717 l 4.11691,-0.921772 v -1.381182 c 0,-1.36741 -0.3722,-2.518395 -1.11265,-3.45394 -0.74243,-0.93456 -1.87087,-1.4028246 -3.38238,-1.4028246 -0.44822,0 -0.95272,0.084602 -1.5125,0.2518395 -0.55978,0.1672371 -1.09191,0.3551331 -1.59542,0.5646711 -0.50548,0.209539 -0.96061,0.419077 -1.36539,0.628615 -0.40676,0.209539 -0.66641,0.355133 -0.77698,0.438752 l -0.88361,-2.2606531 c 0.11058,-0.083619 0.37813,-0.2233108 0.7987,-0.4180929 0.42058,-0.1947822 0.92606,-0.4043205 1.5125,-0.6286151 0.58841,-0.2233108 1.23902,-0.4190767 1.9538,-0.5863138 0.71577,-0.1672372 1.4345,-0.2508558 2.1631,-0.2508558 2.12757,0 3.82863,0.5932001 5.10319,1.7786166 1.27456,1.1864001 1.91333,2.9246831 1.91333,5.2118971 V 28.85038 Z m -0.16783,-10.883205 -3.5285,0.754535 c -0.58841,0.139692 -1.2173,0.348247 -1.89061,0.627631 -0.67233,0.279385 -1.28148,0.613859 -1.82744,1.004407 -0.54596,0.391532 -1.00306,0.838153 -1.36539,1.339865 -0.3643,0.502695 -0.54694,1.04474 -0.54694,1.632038 0,1.17066 0.3564,2.092432 1.07019,2.763348 0.71577,0.670917 1.58852,1.004407 2.62614,1.004407 0.64369,0 1.26666,-0.133789 1.86988,-0.397434 0.60125,-0.265612 1.14918,-0.599103 1.63887,-1.004407 0.48869,-0.403337 0.90137,-0.838153 1.23902,-1.29658 0.33665,-0.45941 0.5736,-0.901113 0.71478,-1.32019 z"
             id="path5" />
          <path
             d="m 136.20346,10.598902 c -0.16783,-0.08362 -0.42058,-0.201668 -0.75625,-0.355133 -0.33567,-0.152481 -0.63086,-0.230197 -0.8836,-0.230197 -0.55879,0 -1.09093,0.161335 -1.59543,0.481053 -0.50548,0.321685 -0.95172,0.690591 -1.34367,1.109668 -0.39194,0.419076 -0.70787,0.831267 -0.9458,1.235587 -0.23694,0.404321 -0.38503,0.705347 -0.44032,0.899146 V 28.85038 h -2.89961 V 7.8375211 h 2.77324 v 2.9296019 c 0.0573,-0.11018 0.20239,-0.355133 0.44131,-0.731909 0.23694,-0.3767752 0.56669,-0.7673232 0.98726,-1.1716437 0.42058,-0.4043204 0.91718,-0.7594535 1.49078,-1.0673666 0.57459,-0.3069295 1.2252,-0.4603942 1.9538,-0.4603942 0.36332,0 0.76217,0.068862 1.19756,0.2095384 0.43242,0.1396922 0.73551,0.2784007 0.90335,0.4180929 z"
             id="path6" />
          <path
             d="m 151.83981,28.91334 c -0.25274,0.06886 -0.53214,0.131822 -0.84115,0.187896 -0.30803,0.05607 -0.63778,0.109196 -0.98727,0.167237 -0.35048,0.05607 -0.66542,0.08263 -0.94482,0.08263 -0.84115,0 -1.54803,-0.124936 -2.12065,-0.376775 -0.57459,-0.249872 -1.03762,-0.592217 -1.38514,-1.02605 -0.35048,-0.430881 -0.60322,-0.924723 -0.75723,-1.485459 -0.15303,-0.556802 -0.23003,-1.129343 -0.23003,-1.715657 V 10.22311 h -3.5285 V 7.8375211 h 3.5285 V 2.1445709 h 2.89861 v 5.6929502 h 4.15936 V 10.22311 h -4.15936 v 14.231884 c 0,0.587297 0.13329,1.150985 0.39886,1.695982 0.26558,0.54598 0.71972,0.81651 1.36539,0.81651 0.39096,0 0.82536,-0.07673 1.30221,-0.229213 0.47389,-0.152481 0.79771,-0.285287 0.96653,-0.397434 l 0.88361,2.387557 c -0.11551,0.05214 -0.29717,0.114114 -0.54892,0.184944 z"
             id="path7" />
        </g>
        <g
           id="Group-2">
          <g
             id="g8"
             transform="translate(0,14.814189)">
            <path
               d="M 28.892225,0.97138753 H 1.125205 C 0.50454785,0.97138753 0,1.4771863 0,2.0972659 V 29.933127 c 0,0.624312 0.50560339,1.129053 1.125205,1.129053 H 15.012937 V 18.380176 c 0,-0.621138 0.501382,-1.630619 1.122039,-2.25599 L 28.890114,3.3374251 c 0.621713,-0.6243122 1.127323,-0.6243122 1.127323,0 V 2.0972659 c 0.0021,-0.6200796 -0.503499,-1.12587837 -1.125212,-1.12587837"
               id="path8"
               fill="#e1061c"
               fill-rule="nonzero" />
            <rect
               id="Rectangle"
               x="0"
               y="0.97562015"
               width="30.019541"
               height="30.083385" />
          </g>
          <g
             id="g9"
             transform="translate(31.666183)">
            <path
               d="M 2.0941902,15.785576 H 15.978756 V 0.46664695 c 0,-0.62219593 -0.50877,-0.62219593 -1.128372,0 L 2.0941902,13.255525 c -0.6217127,0.62537 -1.12414946,1.634851 -1.12414946,2.258105 v 1.397825 c 0,-0.62008 0.50349226,-1.125879 1.12414946,-1.125879"
               id="path9"
               fill="#e1061c"
               fill-rule="nonzero" />
            <rect
               id="rect9"
               x="0.9689852"
               y="0.0021163127"
               width="15.011882"
               height="16.909338" />
          </g>
          <g
             id="g11"
             opacity="0.8"
             transform="translate(31.666183,14.814189)">
            <g
               id="g10">
              <path
                 d="M 29.862266,0.97138753 H 15.980867 V 13.489377 c 0,0.621138 -0.509825,1.633794 -1.129427,2.25599 L 2.0941902,28.535302 c -0.6217127,0.623254 -1.125205,0.623254 -1.125205,0 v 1.396767 c 0,0.624312 0.5056034,1.129053 1.125205,1.129053 H 29.862266 c 0.618546,0 1.125205,-0.505799 1.125205,-1.129053 V 2.0972659 c 0,-0.6200796 -0.506659,-1.12587837 -1.125205,-1.12587837"
                 id="path10"
                 fill="#5c6971"
                 fill-rule="nonzero" />
              <rect
                 id="rect10"
                 x="0.9689852"
                 y="0.97562015"
                 width="30.018486"
                 height="30.083385" />
            </g>
          </g>
          <g
             id="g12"
             transform="translate(31.666183,14.814189)">
            <path
               d="M 2.0941902,28.535302 14.850384,15.745367 c 0.619602,-0.622196 1.128372,-1.634852 1.128372,-2.25599 V 0.97138753 H 2.0941902 c -0.6217127,0 -1.12414946,0.50579877 -1.12414946,1.12799467 V 28.533186 c 0,0.62537 0.50349226,0.62537 1.12414946,0.0021"
               id="path11"
               fill="#e1061c"
               fill-rule="nonzero" />
            <rect
               id="rect11"
               x="0.9689852"
               y="0.97562015"
               width="15.011882"
               height="28.03162" />
          </g>
          <g
             id="g14"
             opacity="0.6"
             transform="translate(31.666183,14.814189)">
            <g
               id="g13">
              <path
                 d="M 2.0941902,28.535302 14.850384,15.745367 c 0.619602,-0.622196 1.128372,-1.634852 1.128372,-2.25599 V 0.97138753 H 2.0941902 c -0.6217127,0 -1.12414946,0.50579877 -1.12414946,1.12799467 V 28.533186 c 0,0.62537 0.50349226,0.62537 1.12414946,0.0021"
                 id="path12"
                 fill="#5c6971"
                 fill-rule="nonzero" />
              <rect
                 id="rect12"
                 x="0.9689852"
                 y="0.97562015"
                 width="15.011882"
                 height="28.03162" />
            </g>
          </g>
          <g
             id="g16"
             opacity="0.8"
             transform="translate(14.777552,44.442567)">
            <g
               id="g15">
              <path
                 d="M 14.114673,1.4327437 H 0.23644083 V 16.588717 c 0,0.622196 0.50138123,0.622196 1.12203837,0 L 14.114673,3.7987813 C 14.736386,3.1765854 15.241989,2.1681624 15.241989,1.5417338 V 0.30686534 c 0,0.62113778 -0.505603,1.12587836 -1.127316,1.12587836"
                 id="path14"
                 fill="#5c6971"
                 fill-rule="nonzero" />
              <rect
                 id="rect14"
                 x="0.2353853"
                 y="0.30898166"
                 width="15.00766"
                 height="16.750614" />
            </g>
          </g>
          <g
             id="g17"
             transform="translate(14.777552,16.930502)">
            <path
               d="M 14.114673,1.2211124 1.3595348,14.007874 c -0.62276828,0.62537 -1.12203843,1.634851 -1.12203843,2.255989 V 28.944809 H 14.114673 c 0.621713,0 1.127316,-0.504741 1.127316,-1.127995 V 1.2211124 c 0,-0.62537037 -0.505603,-0.62431222 -1.127316,0"
               id="path16"
               fill="#e1061c"
               fill-rule="nonzero" />
            <rect
               id="rect16"
               x="0.2353853"
               y="0.7534073"
               width="15.00766"
               height="28.189285" />
          </g>
          <g
             id="g19"
             opacity="0.6"
             transform="translate(14.777552,16.930502)">
            <g
               id="g18">
              <path
                 d="M 14.114673,1.2211124 1.3595348,14.007874 c -0.62276828,0.62537 -1.12203843,1.634851 -1.12203843,2.255989 V 28.944809 H 14.114673 c 0.621713,0 1.127316,-0.504741 1.127316,-1.127995 V 1.2211124 c 0,-0.62537037 -0.505603,-0.62431222 -1.127316,0"
                 id="path17"
                 fill="#5c6971"
                 fill-rule="nonzero" />
              <rect
                 id="rect17"
                 x="0.2353853"
                 y="0.7534073"
                 width="15.00766"
                 height="28.189285" />
            </g>
          </g>
          <path
             d="m 100.27625,30.04398 c 0,2.222102 -0.324662,4.279527 -0.964491,6.174359 -0.645099,1.895874 -1.554773,3.533268 -2.722698,4.911138 -1.166871,1.374743 -2.590938,2.449315 -4.27431,3.220589 -1.679155,0.769189 -3.552262,1.150657 -5.618266,1.150657 h -7.510347 c -0.328875,0 -0.592395,-0.102141 -0.786347,-0.307467 -0.195005,-0.208452 -0.289873,-0.475271 -0.289873,-0.801499 V 16.984439 c 0,-0.326228 0.09698,-0.592005 0.289873,-0.797331 0.198168,-0.209494 0.457472,-0.314763 0.786347,-0.314763 h 7.466075 c 2.037544,0 3.89484,0.339778 5.570833,1.023501 1.683372,0.679555 3.114817,1.642605 4.296445,2.887066 1.183737,1.245503 2.10606,2.731768 2.764862,4.466092 0.661965,1.731197 0.991897,3.664593 0.991897,5.794976 m -5.450671,0 c 0,-1.422688 -0.180249,-2.751572 -0.538637,-3.978314 -0.362605,-1.232996 -0.893863,-2.296103 -1.600099,-3.18411 -0.70202,-0.890091 -1.554774,-1.593618 -2.54245,-2.112664 -0.989785,-0.519047 -2.115547,-0.777528 -3.376231,-0.777528 H 83.39404 v 21.396594 h 3.106385 c 1.256468,0 2.394878,-0.282453 3.419448,-0.846317 1.019299,-0.563863 1.896297,-1.348687 2.632047,-2.356554 0.732588,-1.009951 1.295469,-2.204384 1.687588,-3.580169 0.388957,-1.380997 0.586071,-2.900615 0.586071,-4.560938"
             id="path19"
             fill="#e1061c"
             fill-rule="nonzero" />
          <path
             d="m 125.29055,45.193267 c -0.2103,0.205318 -0.47901,0.307456 -0.81252,0.307456 h -3.11521 c -0.33245,0 -0.59692,-0.102138 -0.78704,-0.309541 -0.19649,-0.20636 -0.29527,-0.47317 -0.29527,-0.801471 V 32.206099 h -10.45449 v 12.183612 c 0,0.326217 -0.10621,0.593026 -0.31545,0.801471 -0.20924,0.208445 -0.48327,0.309541 -0.81359,0.309541 h -3.11521 c -0.33138,0 -0.59479,-0.102138 -0.79022,-0.307456 -0.19331,-0.208445 -0.29315,-0.475255 -0.29315,-0.801471 V 16.9844 c 0,-0.326217 0.10197,-0.591984 0.29315,-0.797303 0.19755,-0.209487 0.4599,-0.314752 0.79022,-0.314752 h 3.11521 c 0.33032,0 0.60223,0.105265 0.81359,0.314752 0.20924,0.204276 0.31545,0.470044 0.31545,0.797303 v 10.877704 h 10.45449 V 16.9844 c 0,-0.326217 0.10091,-0.591984 0.29527,-0.797303 0.19225,-0.209487 0.45459,-0.314752 0.78704,-0.314752 h 3.11521 c 0.33138,0 0.6001,0.105265 0.81252,0.314752 0.21031,0.204276 0.31864,0.470044 0.31864,0.797303 v 27.40948 c 0,0.324132 -0.10833,0.590942 -0.31864,0.799387"
             id="path20"
             fill="#e1061c"
             fill-rule="nonzero" />
          <path
             d="m 149.8866,36.973237 c 0,1.330921 -0.27148,2.52948 -0.81024,3.594634 -0.5377,1.067239 -1.27639,1.964595 -2.22132,2.69311 -0.94072,0.72122 -2.03928,1.278811 -3.29462,1.666518 -1.25535,0.382497 -2.5854,0.573224 -3.98911,0.573224 h -6.86599 c -0.20835,0 -0.38829,-0.07296 -0.53666,-0.217825 -0.15257,-0.149038 -0.22623,-0.327259 -0.22623,-0.533619 V 16.58627 c 0,-0.208446 0.0737,-0.378328 0.22623,-0.513817 0.14837,-0.133405 0.32831,-0.200108 0.53666,-0.200108 h 7.40685 c 1.16906,0 2.29918,0.151123 3.39143,0.443988 1.09224,0.295992 2.04874,0.751445 2.87266,1.355935 0.82603,0.60866 1.47843,1.377822 1.97509,2.311656 0.49667,0.929665 0.74185,2.032339 0.74185,3.30698 0,0.798345 -0.1831,1.561254 -0.54192,2.287685 -0.35987,0.722262 -0.81129,1.374695 -1.34689,1.952087 -0.54191,0.578435 -1.13433,1.065155 -1.77726,1.463285 -0.64504,0.402298 -1.26692,0.690995 -1.86461,0.867131 0.83444,0.149038 1.63627,0.422101 2.39705,0.823358 0.76394,0.402299 1.43423,0.90882 2.02034,1.534155 0.58084,0.620124 1.04384,1.337175 1.38687,2.153238 0.34304,0.812935 0.51982,1.681109 0.51982,2.601394 m -4.12275,-13.558308 c 0,-1.509142 -0.52613,-2.708743 -1.57418,-3.596719 -1.05015,-0.886934 -2.41073,-1.329879 -4.08803,-1.329879 h -4.89195 v 10.255495 h 4.75832 c 0.74815,0 1.4679,-0.130278 2.15818,-0.399172 0.68607,-0.267852 1.29849,-0.636799 1.83935,-1.111012 0.53981,-0.471086 0.97018,-1.034929 1.30269,-1.685278 0.32726,-0.651391 0.49562,-1.363231 0.49562,-2.133435 m 0.7229,13.430114 c 0,-1.717587 -0.59137,-3.073522 -1.77516,-4.062594 -1.18379,-0.995325 -2.71904,-1.490382 -4.60784,-1.490382 h -4.89616 v 11.597882 h 4.89616 c 0.86916,0 1.69203,-0.147996 2.47281,-0.447115 0.77656,-0.293907 1.46158,-0.710797 2.04243,-1.242332 0.58716,-0.533619 1.04174,-1.167292 1.36899,-1.908314 0.33672,-0.743107 0.49877,-1.558127 0.49877,-2.447145"
             id="path21"
             fill="#5c6971"
             fill-rule="nonzero" />
          <path
             d="m 176.79562,44.747168 c -0.0602,0.205326 -0.16482,0.386679 -0.31484,0.535722 -0.15213,0.144875 -0.32962,0.217833 -0.54198,0.217833 h -2.25139 c -0.20812,0 -0.40146,-0.07296 -0.56522,-0.217833 -0.16376,-0.149043 -0.27574,-0.329354 -0.33702,-0.535722 l -4.97819,-24.833973 -4.89262,24.833973 c -0.0592,0.205326 -0.17327,0.386679 -0.33597,0.535722 -0.16481,0.144875 -0.35498,0.217833 -0.56416,0.217833 h -2.25245 c -0.20496,0 -0.39618,-0.07296 -0.56099,-0.217833 -0.16587,-0.149043 -0.27892,-0.329354 -0.33914,-0.535722 l -5.78113,-28.165042 c -0.0592,-0.207411 -0.0222,-0.378341 0.11094,-0.512793 0.1384,-0.130283 0.31166,-0.196988 0.51979,-0.196988 h 1.89218 c 0.4807,0 0.78075,0.236594 0.90119,0.710823 l 4.51756,24.877748 4.89262,-24.877748 c 0.11727,-0.474229 0.42048,-0.710823 0.90013,-0.710823 h 2.25244 c 0.45429,0 0.73638,0.236594 0.85787,0.710823 l 4.93277,24.877748 4.47424,-24.877748 c 0.1215,-0.474229 0.40675,-0.710823 0.85788,-0.710823 h 1.80132 c 0.20813,0 0.37294,0.06671 0.49761,0.196988 0.11832,0.134452 0.15002,0.305382 0.0887,0.512793 z"
             id="path22"
             fill="#5c6971"
             fill-rule="nonzero" />
        </g>
      </g>
    </g>
  </g>
  <path
     style="fill:#5c6971;fill-opacity:1;stroke:#000000;stroke-width:0.597165"
     d="M 55.751813,0 Z"
     id="path23" />
  <metadata
     id="metadata24">
    <rdf:RDF>
      <cc:Work
         rdf:about="">
        <dc:title>Logo DHBW Stuttgart</dc:title>
      </cc:Work>
    </rdf:RDF>
  </metadata>
</svg>
