<?xml version="1.0" encoding="UTF-8" standalone="no"?>
<!-- Generator: Adobe Illustrator 25.0.0, SVG Export Plug-In . SVG Version: 6.00 Build 0)  -->

<svg
   version="1.0"
   x="0px"
   y="0px"
   viewBox="0 0 133.22835 48.567001"
   xml:space="preserve"
   id="svg24"
   sodipodi:docname="hse_logo.svg"
   width="133.22835"
   height="48.567001"
   inkscape:version="1.3.2 (091e20e, 2023-11-25, custom)"
   xmlns:inkscape="http://www.inkscape.org/namespaces/inkscape"
   xmlns:sodipodi="http://sodipodi.sourceforge.net/DTD/sodipodi-0.dtd"
   xmlns="http://www.w3.org/2000/svg"
   xmlns:svg="http://www.w3.org/2000/svg"><defs
   id="defs24" /><sodipodi:namedview
   id="namedview24"
   pagecolor="#505050"
   bordercolor="#ffffff"
   borderopacity="1"
   inkscape:showpageshadow="0"
   inkscape:pageopacity="0"
   inkscape:pagecheckerboard="1"
   inkscape:deskcolor="#505050"
   inkscape:zoom="9.3148344"
   inkscape:cx="66.614174"
   inkscape:cy="27.32201"
   inkscape:window-width="1920"
   inkscape:window-height="991"
   inkscape:window-x="-9"
   inkscape:window-y="-9"
   inkscape:window-maximized="1"
   inkscape:current-layer="svg24" />
<style
   type="text/css"
   id="style1">
	.st0{fill:#D70F3C;}
	.st1{fill:#002D58;}
	.st2{display:none;}
	.st3{display:inline;opacity:0;fill:#CCD5DE;}
</style>
<g
   id="Klammer">
	<g
   id="g2">
		<g
   id="g1">
			<polygon
   class="st0"
   points="17.337824,4.2535729 17.337824,7.2535729 7.2763009,7.2535729 7.2763009,17.315096 4.2763009,17.315096 4.2763009,4.2535729 "
   id="polygon1" />
		</g>
	</g>
</g>
<g
   id="EN">
	<g
   id="g11">
		<path
   class="st1"
   d="m 11.559689,38.772755 v -7.626599 h 1.118817 v 7.626599 c 0,2.990379 1.2729,4.374179 3.607692,4.374179 2.333812,0 3.607692,-1.3838 3.607692,-4.374179 v -7.626599 h 1.118817 v 7.626599 c 0,3.794163 -1.833288,5.383075 -4.726509,5.383075 -2.894201,0 -4.726509,-1.588913 -4.726509,-5.383075 z"
   id="path2" />
		<path
   class="st1"
   d="m 34.346249,31.146156 v 12.897793 h -1.08054 L 26.62936,33.31411 V 44.043949 H 25.510544 V 31.146156 h 1.060913 l 6.655975,10.823078 V 31.146156 Z"
   id="path3" />
		<path
   class="st1"
   d="M 40.155262,44.043949 H 39.036446 V 31.146156 h 1.118816 z"
   id="path4" />
		<path
   class="st1"
   d="m 45.288078,31.146156 4.109196,11.141056 4.147472,-11.141056 h 1.214997 L 49.937054,44.043949 H 48.895771 L 44.073082,31.146156 Z"
   id="path5" />
		<path
   class="st1"
   d="m 65.932205,31.146156 v 1.008896 h -6.713882 v 4.710808 h 6.134842 v 1.00988 h -6.134842 v 5.158333 h 6.713882 v 1.009876 H 58.099506 V 31.146156 Z"
   id="path6" />
		<path
   class="st1"
   d="m 77.58654,44.043949 -2.952102,-5.514587 c -0.289521,0.0373 -0.578057,0.0373 -0.887208,0.0373 h -3.028655 v 5.477291 H 69.599762 V 31.146156 h 4.147469 c 3.010009,0 4.746139,1.270935 4.746139,3.719574 0,1.832306 -0.98436,3.01001 -2.74012,3.477166 l 3.086563,5.701053 z m -3.83931,-6.486191 c 2.334794,0 3.627327,-0.766487 3.627327,-2.692028 0,-1.925541 -1.292533,-2.710678 -3.627327,-2.710678 h -3.028655 v 5.402706 z"
   id="path7" />
		<path
   class="st1"
   d="m 89.800285,33.762615 c -0.694847,-0.990249 -1.620323,-1.719444 -3.453605,-1.719444 -1.832314,0 -3.04731,0.729194 -3.04731,2.318111 0,1.849972 1.524147,2.318108 3.452629,2.729321 2.508507,0.523098 4.167106,1.270939 4.167106,3.700927 0,1.644856 -1.19635,3.3643 -4.379089,3.3643 -2.121826,0 -3.665596,-0.710544 -4.648979,-2.112011 l 0.90683,-0.617309 c 0.829299,1.009876 1.754776,1.720424 3.742149,1.720424 2.37307,0 3.260269,-1.065818 3.260269,-2.318107 0,-1.551624 -0.92646,-2.299465 -3.433983,-2.766617 -2.488876,-0.467155 -4.185745,-1.402447 -4.185745,-3.700928 0,-1.813659 1.214996,-3.327989 4.205376,-3.327989 2.063919,0 3.376076,0.6919 4.301552,2.112993 z"
   id="path8" />
		<path
   class="st1"
   d="m 95.976349,44.043949 h -1.11882 V 31.146156 h 1.11882 z"
   id="path9" />
		<path
   class="st1"
   d="m 109.07533,31.146156 v 1.008896 h -4.225 v 11.888897 h -1.11882 V 32.155052 h -4.224018 v -1.008896 z"
   id="path10" />
		<path
   class="st1"
   d="m 113.05204,31.146156 3.56941,6.056332 3.56844,-6.056332 h 1.31215 l -4.32118,7.252678 v 5.645115 h -1.11881 v -5.645115 l -4.32119,-7.252678 z"
   id="path11" />
	</g>
	<g
   id="g20">
		<path
   class="st1"
   d="m 21.085052,11.509036 v 2.643555 H 14.64267 v 3.44336 h 5.776367 v 2.62207 H 14.64267 v 3.998047 h 6.442382 v 2.622071 H 11.532318 V 11.509036 Z"
   id="path12" />
		<path
   class="st1"
   d="m 31.663177,15.485599 c -0.666015,-1.044922 -1.46582,-1.555664 -3.021484,-1.555664 -1.399414,0 -2.154297,0.644531 -2.154297,1.688476 0,1.200196 0.976563,1.733399 3.021485,2.244142 3.199218,0.799804 4.642578,2 4.642578,4.709961 0,2.510742 -1.688477,4.46582 -5.28711,4.46582 -2.688476,0 -4.554687,-0.733399 -5.910156,-2.510742 l 2.376953,-1.643555 c 0.822266,1.021484 1.75586,1.532227 3.333008,1.532227 1.777344,0 2.376953,-0.777344 2.376953,-1.709961 0,-1.066406 -0.643555,-1.666992 -3.131836,-2.310547 -3.021484,-0.800781 -4.533203,-2.244141 -4.533203,-4.777345 0,-2.421875 1.59961,-4.30957 5.244141,-4.30957 2.443359,0 4.287109,0.821289 5.375976,2.510742 z"
   id="path13" />
		<path
   class="st1"
   d="m 44.885834,15.485599 c -0.666016,-1.044922 -1.465821,-1.555664 -3.021485,-1.555664 -1.399414,0 -2.154297,0.644531 -2.154297,1.688476 0,1.200196 0.976563,1.733399 3.021485,2.244142 3.199219,0.799804 4.642578,2 4.642578,4.709961 0,2.510742 -1.688477,4.46582 -5.287109,4.46582 -2.688477,0 -4.554688,-0.733399 -5.910157,-2.510742 l 2.376953,-1.643555 c 0.822266,1.021484 1.75586,1.532227 3.333008,1.532227 1.777344,0 2.376953,-0.777344 2.376953,-1.709961 0,-1.066406 -0.643554,-1.666992 -3.131836,-2.310547 -3.021484,-0.800781 -4.533203,-2.244141 -4.533203,-4.777345 0,-2.421875 1.59961,-4.30957 5.244141,-4.30957 2.443359,0 4.287109,0.821289 5.375977,2.510742 z"
   id="path14" />
		<path
   class="st1"
   d="m 53.243256,24.216068 h 6.443359 v 2.622071 H 50.132904 V 11.509036 h 3.110352 z"
   id="path15" />
		<path
   class="st1"
   d="M 65.110443,26.838139 H 61.999115 V 11.509036 h 3.111328 z"
   id="path16" />
		<path
   class="st1"
   d="M 80.33017,11.509036 V 26.838139 H 77.731537 L 71.754974,17.35181 v 9.486329 H 68.799896 V 11.509036 h 2.577149 l 5.999023,9.619142 v -9.619142 z"
   id="path17" />
		<path
   class="st1"
   d="m 94.864349,18.862553 v 1.399414 c 0,4.6875 -2.177734,6.776367 -5.643554,6.776367 -3.44336,0 -5.865235,-2.088867 -5.865235,-6.776367 v -1.955078 c 0,-4.954103 2.421875,-6.998048 5.865235,-6.998048 3.221679,0 5.154297,1.821289 5.621093,4.954102 h -2.977539 c -0.265625,-1.399415 -1.08789,-2.333008 -2.643554,-2.333008 -1.799805,0 -2.754883,1.221679 -2.754883,4.155274 v 2.176758 c 0,2.932617 0.955078,4.154297 2.754883,4.154297 1.754883,0 2.46582,-1.088868 2.643554,-2.932618 h -2.576172 v -2.621093 z"
   id="path18" />
		<path
   class="st1"
   d="m 107.42099,11.509036 v 2.643555 h -6.44336 v 3.44336 h 5.77637 v 2.62207 h -5.77637 v 3.998047 h 6.44336 v 2.622071 H 97.867279 V 11.509036 Z"
   id="path19" />
		<path
   class="st1"
   d="m 121.55283,11.509036 v 15.329103 h -2.59864 l -5.97656,-9.486329 v 9.486329 h -2.95508 V 11.509036 h 2.57715 l 5.99902,9.619142 v -9.619142 z"
   id="path20" />
	</g>
</g>
<g
   id="Vermassung"
   class="st2">
	<path
   class="st3"
   d="m 11.434015,43.714287 v 2.643555 H 4.991632 v 3.443359 H 10.768 v 2.62207 H 4.991632 v 3.998047 h 6.442383 v 2.62207 H 1.8812804 V 43.714287 Z"
   id="path21" />
	<rect
   x="-0.0001587"
   y="7.2340713"
   class="st3"
   width="4.2601218"
   height="4.2601218"
   id="rect21" />
	<rect
   x="5.98558"
   y="0.0047674999"
   class="st3"
   width="4.2601218"
   height="4.2601218"
   id="rect22" />
	<rect
   x="7.2741766"
   y="7.2756386"
   class="st3"
   width="4.2601218"
   height="4.2601218"
   id="rect23" />
	<rect
   x="7.2276063"
   y="24.158653"
   class="st3"
   width="4.2601218"
   height="4.2601218"
   id="rect24" />
</g>
</svg>
