<?xml version="1.0" encoding="UTF-8" standalone="no"?>
<svg
   width="220"
   height="56"
   viewBox="0 0 220 56"
   version="1.1"
   id="svg33"
   xmlns="http://www.w3.org/2000/svg"
   xmlns:svg="http://www.w3.org/2000/svg"
   xmlns:rdf="http://www.w3.org/1999/02/22-rdf-syntax-ns#"
   xmlns:cc="http://creativecommons.org/ns#"
   xmlns:dc="http://purl.org/dc/elements/1.1/">
  <defs
     id="defs33" />
  <title
     id="title1">logo-m-vm</title>
  <rect
     style="fill:#fffc00;fill-opacity:1;stroke:none;stroke-width:7.07216;stroke-linecap:round"
     id="rect33"
     width="220"
     height="55.850998"
     x="0"
     y="0" />
  <g
     id="logo-m-vm"
     stroke="none"
     stroke-width="1"
     fill="none"
     fill-rule="evenodd"
     transform="matrix(1.1102536,0,0,1.1102536,5.2088985,4.6101753)">
    <g
       id="BaWue_VM_Logo_rgb_pos"
       transform="translate(1,1)"
       fill="#2a2623"
       fill-rule="nonzero">
      <g
         id="MInisterien_in_Pfade"
         transform="translate(42.0094,15.2476)">
        <polygon
           id="Path"
           points="5.6791011,9.2951186 3.8897383,9.2951186 1.6207943,2.4630649 1.6207943,9.2951186 2.0003385e-05,9.2951186 2.0003385e-05,0.22050044 0,0.22050044 2.4246303,0.22050044 4.7844097,7.2468745 7.1312869,0.22050044 9.5559172,0.22050044 9.5559172,9.2951186 7.9351429,9.2951186 7.9351429,2.4630649 " />
        <path
           d="m 11.4619,0 h 1.724512 V 1.6982434 H 11.4619 Z m 0.02598,2.6056652 h 1.672743 V 9.2951386 H 11.48788 Z"
           id="Shape" />
        <path
           d="m 14.94957,2.6056652 h 1.607712 v 1.0502021 c 0.376044,-0.7648415 1.128111,-1.1668023 2.139422,-1.1668023 1.491073,0 2.230058,0.8945418 2.230058,2.4113248 V 9.2951186 H 19.254219 V 5.1986304 c 0,-0.8168016 -0.466679,-1.2316425 -1.166998,-1.2316425 -0.868707,0 -1.47799,0.5962812 -1.47799,1.6982434 V 9.2951186 H 14.94957 V 2.6056452 Z"
           id="path1" />
        <path
           d="m 22.625309,0 h 1.724512 v 1.6982434 h -1.724512 z m 0.02598,2.6056652 h 1.672542 v 6.6894734 h -1.672542 z"
           id="path2" />
        <path
           d="m 25.672305,7.5449351 1.620774,-0.3369207 c 0.11662,0.6480413 0.661252,0.9462819 1.47799,0.9462819 0.700319,0 1.089244,-0.2203204 1.089244,-0.6740213 0,-0.492781 -0.440894,-0.6353613 -1.063259,-0.7519615 L 27.915464,6.5726531 C 26.891071,6.3912128 25.776042,6.002332 25.776042,4.5632691 c 0,-1.3611427 1.011311,-2.0742241 2.684055,-2.0742241 1.555723,0 2.619003,0.6222612 2.852442,1.8798837 l -1.59481,0.3369207 c -0.06485,-0.6351613 -0.544632,-0.9462819 -1.322483,-0.9462819 -0.687217,0 -1.037276,0.2591805 -1.037276,0.6871014 0,0.492581 0.41491,0.6611413 1.037276,0.7777415 l 1.050177,0.1945404 c 1.011311,0.1814404 2.022603,0.5574211 2.022603,1.8927838 0,1.4388629 -1.166798,2.1259843 -2.735823,2.1259843 -1.426222,0 -2.761608,-0.5445411 -3.059898,-1.8927838 z"
           id="path3" />
        <path
           d="M 33.192517,7.3894548 V 4.0706881 H 32.038602 V 2.6056452 h 1.153915 V 1.0759621 L 34.865261,0.60936122 V 2.6056452 h 1.348468 v 1.4650429 h -1.348468 v 3.0464861 c 0,0.505661 0.168588,0.7130815 0.687216,0.7130815 h 0.803856 V 9.2950986 H 35.0987 c -1.270715,0 -1.906183,-0.6222612 -1.906183,-1.9056638 z"
           id="path4" />
        <path
           d="m 37.251024,6.0412121 c 0,-2.0224641 1.102147,-3.5521471 3.228467,-3.5521471 2.178288,0 3.060098,1.5685631 3.060098,3.500207 v 0.4279208 h -4.654888 c 0.103737,1.1148423 0.64835,1.6722634 1.659661,1.6722634 0.752087,0 1.205864,-0.2851606 1.413319,-0.8556617 l 1.568825,0.3371006 c -0.41491,1.2185625 -1.47799,1.8668038 -3.008129,1.8668038 -1.957751,0 -3.267353,-1.2185625 -3.267353,-3.3964868 z m 4.654688,-0.7519415 c -0.05177,-0.9462819 -0.505546,-1.4519629 -1.426221,-1.4519629 -0.920676,0 -1.400237,0.505661 -1.555924,1.4519629 z"
           id="path5" />
        <path
           d="m 44.939826,2.6056652 h 1.607692 v 1.1927824 c 0.220357,-0.7648415 0.790953,-1.2705025 1.646758,-1.2705025 h 0.583499 v 1.6336032 h -0.596581 c -1.141013,0 -1.581708,0.6740214 -1.581708,1.8408237 v 3.2927866 h -1.65966 V 2.6056852 Z"
           id="path6" />
        <path
           d="m 49.892624,0 h 1.724512 v 1.6982434 h -1.724512 z m 0.02598,2.6056652 h 1.672743 v 6.6894734 h -1.672743 z"
           id="path7" />
        <path
           d="M 53.315663,7.026374 V 2.6056652 h 1.659661 v 4.1484483 c 0,0.8296817 0.440895,1.2445425 1.141013,1.2445425 0.82982,0 1.374453,-0.6740214 1.374453,-1.7240235 V 2.6056652 h 1.672543 V 9.2951586 H 57.594307 V 8.1543363 c -0.350059,0.8685618 -1.089044,1.2834026 -2.048586,1.2834026 -1.439104,0 -2.230058,-0.8945418 -2.230058,-2.4113249 z"
           id="path8" />
        <path
           d="m 60.991522,2.6056652 h 1.620814 v 0.985362 C 62.949494,2.8650457 63.63673,2.489065 64.453468,2.489065 c 0.816738,0 1.555923,0.3759807 1.789363,1.2316424 0.388926,-0.8556617 1.17988,-1.2316424 2.139422,-1.2316424 1.17988,0 2.12634,0.7388615 2.12634,2.1650443 V 9.2951386 H 68.848932 V 5.0429901 c 0,-0.7259815 -0.388926,-1.0759822 -1.011311,-1.0759822 -0.700119,0 -1.244751,0.479681 -1.244751,1.4259829 V 9.2951386 H 64.920327 V 5.0429901 c 0,-0.7259815 -0.388926,-1.0759822 -1.011311,-1.0759822 -0.687216,0 -1.244751,0.479681 -1.244751,1.4259829 v 3.9021478 h -1.672743 z"
           id="path9" />
        <path
           d="M 75.746999,4.0707081 H 74.735508 V 2.6056652 h 1.011491 V 2.0353441 c 0,-1.36114275 0.64815,-1.95762394 1.815148,-1.95762394 h 1.257632 V 1.477923 h -0.803856 c -0.453796,0 -0.596381,0.1814403 -0.596381,0.6351612 v 0.492581 h 1.244751 v 1.4650429 h -1.244751 v 5.2244305 h -1.672543 z"
           id="path10" />
        <path
           d="M 79.831271,7.026374 V 2.6056652 h 1.659661 v 4.1484483 c 0,0.8296817 0.440694,1.2445425 1.141013,1.2445425 0.82982,0 1.374252,-0.6740214 1.374252,-1.7240235 V 2.6056652 H 85.67894 V 9.2951586 H 84.110115 V 8.1543363 c -0.35026,0.8685618 -1.089245,1.2834026 -2.048787,1.2834026 -1.439104,0 -2.230057,-0.8945418 -2.230057,-2.4113249 z m 0.972444,-6.79297353 h 1.439304 V 1.7242234 h -1.439304 z m 2.489481,0 H 84.7325 V 1.7242234 h -1.439304 z"
           id="path11" />
        <path
           d="m 87.520272,2.6056652 h 1.607692 v 1.1927824 c 0.220537,-0.7648415 0.790954,-1.2705025 1.646759,-1.2705025 h 0.583498 V 4.1615483 H 90.76164 c -1.141013,0 -1.581707,0.6740214 -1.581707,1.8408237 V 9.2951586 H 87.520272 V 2.6056852 Z"
           id="path12" />
        <polygon
           id="polygon12"
           points="98.748752,7.4154348 101.12161,0.22050044 102.94966,0.22050044 99.760063,9.2951186 97.750343,9.2951186 94.547661,0.22050044 94.547641,0.22050044 96.388973,0.22050044 " />
        <path
           d="m 103.1573,6.0412121 c 0,-2.0224641 1.10215,-3.5521471 3.22847,-3.5521471 2.17828,0 3.06009,1.5685631 3.06009,3.500207 v 0.4279208 h -4.65488 c 0.10373,1.1148423 0.64834,1.6722634 1.65966,1.6722634 0.75208,0 1.20586,-0.2851606 1.41332,-0.8556617 l 1.56882,0.3371006 c -0.41491,1.2185625 -1.47799,1.8668038 -3.00813,1.8668038 -1.95775,0 -3.26735,-1.2185625 -3.26735,-3.3964868 z m 4.65489,-0.7519415 c -0.052,-0.9462819 -0.50575,-1.4519629 -1.42642,-1.4519629 -0.92068,0 -1.40024,0.505661 -1.55593,1.4519629 z"
           id="path13" />
        <path
           d="m 110.8461,2.6056652 h 1.60769 v 1.1927824 c 0.22054,-0.7648415 0.79095,-1.2705025 1.64676,-1.2705025 h 0.5835 v 1.6336032 h -0.59658 c -1.14101,0 -1.58171,0.6740214 -1.58171,1.8408237 V 9.2951586 H 110.8461 V 2.6056852 Z"
           id="path14" />
        <polygon
           id="polygon14"
           points="117.53649,7.5968952 117.53649,9.2951386 115.87683,9.2951386 115.87683,0.077740156 115.87683,0.077720155 117.53649,0.077720155 117.53649,5.509571 120.05176,2.6056652 122.20426,2.6056652 119.66281,5.3152506 122.32088,9.2951386 120.32406,9.2951386 118.5347,6.5338131 " />
        <path
           d="m 122.71003,6.0412121 c 0,-2.0224641 1.10214,-3.5521471 3.22846,-3.5521471 2.17829,0 3.0601,1.5685631 3.0601,3.500207 v 0.4279208 h -4.65489 c 0.10374,1.1148423 0.64835,1.6722634 1.65967,1.6722634 0.75208,0 1.20586,-0.2851606 1.41331,-0.8556617 l 1.56883,0.3371006 c -0.41491,1.2185625 -1.47799,1.8668038 -3.00813,1.8668038 -1.95775,0 -3.26735,-1.2185625 -3.26735,-3.3964868 z m 4.65469,-0.7519415 c -0.0518,-0.9462819 -0.50555,-1.4519629 -1.42623,-1.4519629 -0.92067,0 -1.40023,0.505661 -1.55592,1.4519629 z"
           id="path15" />
        <path
           d="m 130.39899,0.07770016 h 1.65968 V 3.5650271 c 0.38892,-0.7000014 1.11503,-1.0759821 2.08745,-1.0759821 1.49107,0 2.23026,0.8945418 2.23026,2.4113248 v 4.3947288 h -1.67274 V 5.1986104 c 0,-0.8168016 -0.46668,-1.2316425 -1.167,-1.2316425 -0.86871,0 -1.47799,0.5962812 -1.47799,1.6982434 v 3.6298873 h -1.65966 z"
           id="path16" />
        <path
           d="m 138.15268,2.6056652 h 1.60769 v 1.1927824 c 0.22054,-0.7648415 0.79096,-1.2705025 1.64676,-1.2705025 h 0.5835 v 1.6336032 h -0.59658 c -1.14101,0 -1.58171,0.6740214 -1.58171,1.8408237 v 3.2927866 h -1.65966 V 2.6056852 Z"
           id="path17" />
      </g>
      <g
         id="BAWUE_in_Pfade"
         transform="translate(42.0071,1.3756)">
        <path
           d="m 0,0.14258028 h 4.1749266 c 1.6467587,0 2.4248303,1.10196222 2.4248303,2.22988442 0,0.8814418 -0.4537968,1.7630836 -1.3744526,2.0613242 1.1021465,0.3111406 1.6596609,1.2185624 1.6596609,2.1908244 0,1.3482426 -1.0243934,2.5927851 -2.9432781,2.5927851 H 0 Z M 3.6564788,3.8115276 c 0.7907538,0 1.1927819,-0.492781 1.1927819,-1.0890622 0,-0.5574211 -0.3629614,-0.9851619 -1.1150287,-0.9851619 H 1.7114296 v 2.0742241 z m 0.1035375,3.7982476 c 0.9595424,0 1.3875349,-0.5962812 1.3875349,-1.2574225 0,-0.6351613 -0.4408947,-1.1796824 -1.3096017,-1.1796824 H 1.7114096 v 2.4371049 h 2.0485867 z"
           id="path18" />
        <path
           d="m 7.9613074,7.3765747 c 0,-1.4650429 1.1539153,-1.8410236 2.1263396,-1.9836039 l 1.348468,-0.1814404 c 0.505746,-0.07774 0.842923,-0.1943404 0.842923,-0.7130814 0,-0.5443411 -0.376043,-0.8037216 -1.115229,-0.8037216 -0.920475,0 -1.3224835,0.3630807 -1.4391032,0.9722619 L 8.1556803,4.3300687 C 8.4799551,3.007606 9.607886,2.4113048 11.254645,2.4113048 c 1.815147,0 2.696936,0.7259815 2.696936,2.2298845 V 9.2173784 H 12.395658 V 8.0765562 c -0.402028,0.7908215 -1.166998,1.2834025 -2.256042,1.2834025 -1.270715,0 -2.1783086,-0.7000014 -2.1783086,-1.9834039 z M 10.619377,7.985756 c 0.985327,0 1.659661,-0.6091813 1.659661,-1.5556631 V 6.0671921 c -0.246522,0.09062 -0.505745,0.1554603 -0.881789,0.2074204 l -0.752087,0.1166003 c -0.479762,0.06484 -1.0113116,0.2205004 -1.0113116,0.8168016 0,0.5185611 0.3631415,0.7777416 0.9855266,0.7777416 z"
           id="path19" />
        <path
           d="m 15.325834,5.8986318 c 0,-2.0742241 1.089044,-3.487307 2.930376,-3.487307 0.933558,0 1.646558,0.3759808 2.00972,1.0242221 V 0 h 1.659661 V 9.2173984 H 20.369667 V 8.1154362 c -0.272306,0.6871014 -0.972424,1.2445425 -2.113437,1.2445425 -1.82823,0 -2.930396,-1.3871028 -2.930396,-3.4613269 z m 3.306219,1.9445439 c 1.050378,0 1.633877,-0.7908216 1.633877,-2.009384 0,-1.1537223 -0.570597,-1.9056638 -1.633877,-1.9056638 -1.050178,0 -1.607692,0.7519615 -1.607692,1.9445438 0,1.1796824 0.557514,1.970504 1.607692,1.970504 z"
           id="path20" />
        <path
           d="m 23.351812,5.9634719 c 0,-2.022464 1.102147,-3.5521471 3.228466,-3.5521471 2.178289,0 3.060098,1.5687632 3.060098,3.500207 v 0.4279209 h -4.654888 c 0.103738,1.1148422 0.64835,1.6722633 1.659661,1.6722633 0.752088,0 1.205864,-0.2851606 1.41332,-0.8556617 l 1.568825,0.3371007 c -0.41491,1.2185624 -1.47799,1.8668037 -3.008129,1.8668037 -1.957751,0 -3.267353,-1.2185624 -3.267353,-3.3964868 z M 28.0067,5.2115304 C 27.95473,4.2652485 27.500954,3.7595675 26.580278,3.7595675 c -0.920675,0 -1.400237,0.505661 -1.555923,1.4519629 z"
           id="path21" />
        <path
           d="m 31.066558,2.5281251 h 1.607712 v 1.0500021 c 0.376043,-0.7648416 1.128111,-1.1668024 2.139422,-1.1668024 1.491072,0 2.230057,0.8945418 2.230057,2.4113248 V 9.2173784 H 35.371206 V 5.1206902 c 0,-0.8166016 -0.466679,-1.2314424 -1.166997,-1.2314424 -0.868707,0 -1.47799,0.5962812 -1.47799,1.6982434 v 3.6298872 h -1.659661 z"
           id="path22" />
        <polygon
           id="polygon22"
           points="41.996947,5.496691 38.40532,5.496691 38.40532,4.005868 41.996947,4.005868 " />
        <polygon
           id="polygon23"
           points="52.253003,9.2173984 50.28217,9.2173984 48.492807,2.5281251 46.703444,9.2173984 44.73261,9.2173984 42.4248,0.14258029 42.42476,0.14258029 44.20104,0.14258029 45.79585,6.9357539 47.50746,0.14258029 49.478294,0.14258029 51.189723,6.9357539 52.784533,0.14258029 54.561014,0.14258029 " />
        <path
           d="M 55.222426,6.9486339 V 2.5281251 h 1.659661 v 4.1484482 c 0,0.8296817 0.440894,1.2445425 1.141013,1.2445425 0.82982,0 1.374452,-0.6742213 1.374452,-1.7242234 V 2.5281251 h 1.672543 V 9.2173984 H 59.50107 V 8.0765761 c -0.350059,0.8685618 -1.089044,1.2834026 -2.048587,1.2834026 -1.439103,0 -2.230057,-0.8945418 -2.230057,-2.4113248 z M 56.19487,0.15566031 h 1.439104 V 1.6464833 H 56.19487 Z m 2.489482,0 h 1.439103 V 1.6464833 h -1.439103 z"
           id="path23" />
        <path
           d="m 62.600054,2.5281251 h 1.607692 V 3.7207074 C 64.428104,2.9558659 64.9987,2.4502049 65.854505,2.4502049 h 0.583499 v 1.6334033 h -0.596581 c -1.141013,0 -1.581708,0.6742213 -1.581708,1.8410236 v 3.2927866 h -1.659661 z"
           id="path24" />
        <path
           d="M 68.227167,7.3117346 V 3.992968 H 67.073251 V 2.5281251 h 1.153916 V 0.998242 L 69.89991,0.53164106 V 2.5281251 h 1.348468 V 3.992968 H 69.89991 v 3.0464861 c 0,0.505661 0.168588,0.7130814 0.687216,0.7130814 h 0.803856 v 1.4648429 h -1.257633 c -1.270715,0 -1.906182,-0.6222612 -1.906182,-1.9056638 z"
           id="path25" />
        <path
           d="M 73.15418,7.3117346 V 3.992968 H 72.000265 V 2.5281251 H 73.15418 V 0.998242 L 74.826924,0.53164106 V 2.5281251 h 1.348468 V 3.992968 h -1.348468 v 3.0464861 c 0,0.505661 0.168588,0.7130814 0.687216,0.7130814 h 0.803856 v 1.4648429 h -1.257633 c -1.270715,0 -1.906183,-0.6222612 -1.906183,-1.9056638 z"
           id="path26" />
        <path
           d="m 77.212487,5.9634719 c 0,-2.022464 1.102147,-3.5521471 3.228467,-3.5521471 2.178288,0 3.060098,1.5687632 3.060098,3.500207 v 0.4279209 h -4.654888 c 0.103737,1.1148422 0.64835,1.6722633 1.659661,1.6722633 0.752087,0 1.205864,-0.2851606 1.413319,-0.8556617 l 1.568825,0.3371007 c -0.41491,1.2185624 -1.47799,1.8668037 -3.008129,1.8668037 -1.957751,0 -3.267353,-1.2185624 -3.267353,-3.3964868 z M 81.867375,5.2115304 C 81.815406,4.2652485 81.36163,3.7595675 80.440954,3.7595675 c -0.920676,0 -1.400237,0.505661 -1.555924,1.4519629 z"
           id="path27" />
        <path
           d="m 84.914351,2.5281251 h 1.620794 V 3.513287 c 0.337157,-0.7259814 1.024394,-1.1019622 1.841132,-1.1019622 0.816738,0 1.555923,0.3759808 1.789363,1.2316425 0.388925,-0.8556617 1.179879,-1.2316425 2.139422,-1.2316425 1.179879,0 2.126539,0.7390615 2.126539,2.1650443 v 4.6410293 h -1.65966 V 4.9652499 c 0,-0.7259814 -0.389126,-1.0759821 -1.011492,-1.0759821 -0.700118,0 -1.24475,0.4796809 -1.24475,1.4259828 V 9.2173984 H 88.843156 V 4.9652499 c 0,-0.7259814 -0.388926,-1.0759821 -1.011311,-1.0759821 -0.687217,0 -1.244751,0.4796809 -1.244751,1.4259828 v 3.9021478 h -1.672743 z"
           id="path28" />
        <path
           d="M 97.595237,8.1673963 V 9.2173984 H 96.039314 V 0 h 1.659661 v 3.5521471 c 0.350059,-0.6871014 1.076162,-1.1408223 2.061488,-1.1408223 1.828227,0 2.878407,1.4130829 2.878407,3.4484469 0,2.0871042 -1.10195,3.500207 -2.930175,3.500207 -1.102147,0 -1.841332,-0.531441 -2.113438,-1.1925824 z m 1.737394,-0.3242206 c 1.063259,0 1.607689,-0.7777416 1.607689,-1.970504 0,-1.1927623 -0.53153,-1.9316438 -1.581705,-1.9316438 -1.06326,0 -1.659661,0.7519615 -1.659661,1.9447239 0,1.2056624 0.596381,1.9574239 1.633677,1.9574239 z"
           id="path29" />
        <path
           d="m 103.62438,5.9634719 c 0,-2.022464 1.10214,-3.5521471 3.22846,-3.5521471 2.17829,0 3.0601,1.5687632 3.0601,3.500207 v 0.4279209 h -4.65489 c 0.10374,1.1148422 0.64835,1.6722633 1.65967,1.6722633 0.75208,0 1.20586,-0.2851606 1.41331,-0.8556617 l 1.56883,0.3371007 c -0.41491,1.2185624 -1.47799,1.8668037 -3.00813,1.8668037 -1.95775,0 -3.26735,-1.2185624 -3.26735,-3.3964868 z m 4.65488,-0.7519415 c -0.052,-0.9462819 -0.50574,-1.4519629 -1.42642,-1.4519629 -0.92067,0 -1.40023,0.505661 -1.55592,1.4519629 z"
           id="path30" />
        <path
           d="m 111.33916,2.5281251 h 1.6077 v 1.1925823 c 0.22035,-0.7648415 0.79095,-1.2705025 1.64675,-1.2705025 h 0.5835 v 1.6334033 h -0.59658 c -1.14101,0 -1.58171,0.6742213 -1.58171,1.8410236 v 3.2927866 h -1.65966 z"
           id="path31" />
        <path
           d="m 115.81238,9.7878996 1.62077,-0.3502007 c 0.0906,0.6353611 0.57042,1.1019621 1.59481,1.1019621 1.05018,0 1.67255,-0.531441 1.67255,-1.542583 V 7.8691557 c -0.36296,0.7130815 -1.12793,1.1279223 -2.08746,1.1279223 -1.56902,0 -2.8784,-1.0630821 -2.8784,-3.2410265 0,-2.2168044 1.34847,-3.3447267 2.95616,-3.3447267 0.99841,0 1.67254,0.4408209 1.98393,1.0500021 V 2.5281251 h 1.64656 v 6.2615325 c 0,2.1130844 -1.49107,3.0593864 -3.30622,3.0593864 -1.63388,0 -2.86552,-0.725982 -3.20268,-2.0611444 z m 3.21558,-2.1910044 c 0.86871,0 1.62078,-0.5445611 1.62078,-1.8279437 0,-1.2314424 -0.68722,-1.8279236 -1.59481,-1.8279236 -0.9076,0 -1.62078,0.5705011 -1.62078,1.8410237 0,1.2314424 0.70012,1.8148436 1.59481,1.8148436 z"
           id="path32" />
      </g>
      <g
         id="Logo_aktuell">
        <path
           d="m 26.682616,32.817186 c 0.82778,-0.217981 1.433342,-1.075103 1.365571,-2.050745 -0.08467,-1.209502 -1.229988,-2.488824 -3.946268,-1.952343 -0.988547,0.19566 -1.797864,0.483281 -2.574456,0.800041 -0.815178,0.332481 -1.59421,0.697042 -2.506584,1.021082 -0.939519,0.333701 -1.728032,0.477941 -2.341316,0.425901 -0.551654,-0.0468 -0.961583,-0.25236 -1.212125,-0.621661 -0.340878,-0.511101 0.154526,-1.026422 0.364121,-1.170343 0.382105,-0.24974 0.726103,-0.675961 0.522849,-1.369062 -0.366182,0.0637 -1.009151,0.27886 -1.520858,0.682341 -0.423311,0.333701 -0.756868,0.796202 -0.76975,1.408383 0.02432,0.837022 0.603322,1.490963 1.566565,1.721643 0.64639,0.154701 1.162017,0.204461 1.7713,0.124701 0.874568,-0.114481 1.942409,-0.495801 3.867655,-1.216723 1.798944,-0.693741 2.810335,-0.991582 3.585266,-1.026582 0.486223,-0.02196 0.879449,0.0596 1.315743,0.211781 0.272806,0.0952 0.47,0.23952 0.601282,0.4082 0.156086,0.200641 0.218777,0.435721 0.204234,0.663482 -0.02744,0.427301 -0.326915,0.828921 -0.792214,0.929282 -0.107138,0.02314 -0.223178,0.03026 -0.346738,0.01802 -0.143965,-0.01376 -0.300631,-0.04338 -0.477421,-0.0762 -0.521969,-0.09788 -1.225888,-0.22924 -2.321393,-0.1086 -0.657231,0.07238 -1.455426,0.235461 -2.439873,0.550921 -2.054048,0.658182 -3.587127,0.921842 -4.770627,0.967222 -1.676264,0.06428 -2.651229,-0.30938 -3.411998,-0.620121 -0.07501,-0.728221 -0.250442,-1.329863 -0.465419,-1.818804 -0.348879,-0.793441 -0.802095,-1.290102 -1.100086,-1.549363 0,0 0.172489,-0.10688 0.258244,-0.706881 -0.428693,-0.0857 -1.034155,0.15556 -1.034155,0.15556 0,0 -1.1242103,-0.721681 -2.6442876,-0.464541 -0.5800782,0.101581 -0.8563049,0.260321 -1.0151118,0.522741 -1.2078244,0.443381 -1.306281,0.519561 -1.6142332,0.697342 -0.2001338,0.12592 -0.183131,0.29416 -0.183131,0.3365 0,0.09736 0.050789,0.157661 0.072952,0.184121 0.031845,0.03704 0.06143,0.0709 0.06143,0.13862 0.00322,0.351321 -0.027445,0.326501 0.080474,0.604801 0.047668,0.11216 0.153446,0.103701 0.2805075,0.06032 0.7971149,-0.29736 1.4090184,-0.06544 1.4481051,0.473621 0.031245,0.464841 -0.4021281,0.798582 -0.9811261,0.845142 -0.1291218,0.0078 -0.218777,0.01304 -0.2688855,0.01586 -0.095236,0.0063 -0.1588069,0.0148 -0.1481651,0.12592 0.012302,0.08792 0.1390836,0.404561 0.1734694,0.494361 0.087115,0.245041 0.1428042,0.279361 0.3481989,0.286761 0.3874656,0.01376 0.8892105,-0.08254 1.0500777,-0.13228 0,0 -0.016903,0.491001 0.1365431,1.159762 C 5.5287557,33.483767 4.5040823,33.333527 3.3672699,33.374787 2.2317177,33.415667 1.47721,33.648427 0.97662528,33.929188 0.09073536,34.426029 0,35.07315 0,35.07315 c 0.00634107,0.001 1.3062811,0.306841 1.8386912,0.156601 0.3610011,-0.102661 0.608703,-0.451861 0.608703,-0.451861 0,0 0.8579652,0.17612 1.9863762,0.774701 0.5518534,0.292721 1.1683577,0.686501 1.7808614,1.210102 0.022664,0.01934 1.4406638,-0.626281 1.5104156,-0.651921 0.1749296,-0.06432 0.3059117,0.05244 0.3359968,0.10938 0.049288,0.09328 0.066411,0.268221 -0.070332,0.359381 -0.1344027,0.1206 -1.0847435,0.540081 -2.0004385,1.080822 -0.5949206,0.352381 -1.24161,0.734402 -1.7973641,1.074062 C 3.7567958,38.678377 3.5673237,38.661397 3.1576744,38.665657 2.2822262,38.675197 1.7063488,39.440259 1.7063488,40 h 3.4053563 c 0.141824,-0.05152 1.565785,-0.342061 3.0038284,-0.629721 1.0453969,-0.209141 2.0982155,-0.416741 2.6710515,-0.529901 0.256884,-0.05076 0.415791,-0.08248 0.437094,-0.08688 0.07637,-0.01722 0.179711,-0.0295 0.273087,-0.121021 0.04679,-0.04588 0.09104,-0.11172 0.128141,-0.20808 0.02646,-0.06564 0.147185,-0.415861 0.147185,-0.415861 l 0.745146,-0.07194 c 0.994609,-0.08428 1.876498,-0.284481 2.668032,-0.537741 1.017252,-0.325441 1.885479,-0.738482 2.652209,-1.105662 0.933658,-0.447601 1.704288,-0.816902 2.372181,-0.846542 -0.107338,0.660161 0.04777,1.173722 0.152866,1.679643 0.100217,0.481821 0.155006,0.956702 -0.105198,1.544643 C 18.285215,38.670937 18.502251,40 18.502251,40 h 3.420199 c 0,0 0.240961,-0.786482 0.794855,-1.653183 0.254923,-0.399021 0.567276,-0.815242 0.968904,-1.179963 0.08371,-0.07512 0.07627,-0.1545 0.02862,-0.21798 -0.434053,-0.538621 -0.65343,-1.623223 -0.65343,-1.623223 -0.03711,-0.138661 0.130402,-0.230681 0.187532,-0.240221 0.06027,-0.01056 0.222697,-0.01172 0.255903,0.14452 0,0 0.07627,0.752142 0.788713,1.407163 0.450757,0.413181 0.997929,0.738902 1.543522,0.995862 0.656171,0.308981 1.310381,0.518561 1.792983,0.661282 0.551453,0.16296 0.612904,0.34704 0.612904,0.40206 -0.0127,0 -0.209616,0.0095 -0.241341,0.01272 -0.279447,0.03066 -0.600202,0.06666 -0.973905,0.421141 C 26.645609,39.493119 26.726103,40 26.726103,40 h 2.353138 c 0.306992,0 0.415991,-0.18096 0.522849,-0.526981 0.06885,-0.222181 0.347219,-1.350183 0.366362,-1.427463 0.09201,-0.342841 -0.0043,-0.524881 -0.122881,-0.627481 -0.269766,-0.270481 -0.597761,-0.507361 -0.900252,-0.696922 -0.490503,-0.30738 -0.914115,-0.490361 -0.914115,-0.490361 -0.05587,-0.523701 -0.303071,-1.401402 -0.64893,-2.192884 -0.204134,-0.467141 -0.445875,-0.904242 -0.699638,-1.220802 z M 6.5308653,29.109438 c 0.35474,-0.2119 0.8208389,-0.266 1.2042038,-0.22092 -0.041507,0.693081 -1.0147318,0.876862 -1.2042038,0.22092 z m -3.326823,1.481323 c 0.013682,-0.02962 0.029205,-0.0588 0.046488,-0.08738 0.00284,-0.0047 0.016903,-0.0279 0.020703,-0.033 0.00722,-0.0097 0.022944,-0.0037 0.023924,0.0082 0.013762,0.27302 0.1704488,0.695221 0.9325778,0.790461 0.720922,0.091 1.2629137,-0.03176 1.725492,-0.16824 0.051869,0.124861 0.038087,0.321701 -0.2000338,0.409501 -0.2148764,0.06562 -0.7992553,0.23598 -1.707509,0.13968 -0.8480035,-0.09 -1.0435366,-0.622481 -0.8416424,-1.059262 z M 26.682616,18.867158 c 0.82778,-0.217981 1.433342,-1.075102 1.365571,-2.050744 -0.08467,-1.209503 -1.229988,-2.488825 -3.946268,-1.952344 -0.988547,0.19566 -1.797864,0.483281 -2.574456,0.800041 -0.815178,0.332481 -1.59421,0.697042 -2.506584,1.021082 -0.939519,0.333701 -1.728032,0.477941 -2.341316,0.425901 -0.551654,-0.0468 -0.961583,-0.25236 -1.212125,-0.621661 -0.340878,-0.511101 0.154526,-1.026422 0.364121,-1.170342 0.382105,-0.249741 0.726103,-0.675962 0.522849,-1.369063 -0.366182,0.0637 -1.009151,0.278861 -1.520858,0.682341 -0.423311,0.333701 -0.756868,0.796202 -0.76975,1.408383 0.02432,0.837022 0.603322,1.490963 1.566565,1.721643 0.64639,0.154701 1.162017,0.204461 1.7713,0.124701 0.874568,-0.114481 1.942409,-0.495801 3.867655,-1.216723 1.798944,-0.693741 2.810335,-0.991582 3.585266,-1.026582 0.486223,-0.02196 0.879449,0.0596 1.315743,0.211781 0.272806,0.0952 0.47,0.23952 0.601282,0.408201 0.156086,0.20064 0.218777,0.43572 0.204234,0.663481 -0.02744,0.427301 -0.326915,0.828921 -0.792214,0.929282 -0.107138,0.02314 -0.223178,0.03026 -0.346738,0.01802 -0.143965,-0.01376 -0.300631,-0.04338 -0.477421,-0.0762 -0.521969,-0.09788 -1.225888,-0.229241 -2.321393,-0.108601 -0.657231,0.07238 -1.455426,0.235461 -2.439873,0.550921 -2.054048,0.658182 -3.587127,0.921842 -4.770627,0.967222 -1.676264,0.06428 -2.651229,-0.30938 -3.411998,-0.620121 -0.07501,-0.728221 -0.250442,-1.329863 -0.465419,-1.818803 -0.348879,-0.793442 -0.802095,-1.290103 -1.100086,-1.549364 0,0 0.172489,-0.10688 0.258244,-0.706881 -0.428693,-0.0857 -1.034155,0.15556 -1.034155,0.15556 0,0 -1.1242103,-0.721681 -2.6442876,-0.464541 -0.5800782,0.101581 -0.8563049,0.260321 -1.0151118,0.522742 -1.2078244,0.44338 -1.306281,0.519561 -1.6142332,0.697341 -0.2001338,0.12592 -0.183131,0.29416 -0.183131,0.336501 0,0.09736 0.050789,0.15766 0.072952,0.18412 0.031845,0.03704 0.06143,0.0709 0.06143,0.13862 0.00322,0.351321 -0.027445,0.326501 0.080474,0.604801 0.047668,0.112161 0.153446,0.103701 0.2805075,0.06032 0.7971149,-0.29736 1.4090184,-0.06544 1.4481051,0.473621 0.031245,0.464841 -0.4021281,0.798582 -0.9811261,0.845142 -0.1291218,0.0078 -0.218777,0.01304 -0.2688855,0.01586 -0.095236,0.0063 -0.1588069,0.0148 -0.1481651,0.12592 0.012302,0.08792 0.1390836,0.404561 0.1734694,0.494361 0.087115,0.245041 0.1428042,0.279361 0.3481989,0.286761 0.3874656,0.01376 0.8892105,-0.08254 1.0500777,-0.13228 0,0 -0.016903,0.491001 0.1365431,1.159762 C 5.5287557,19.533739 4.5040823,19.383499 3.3672699,19.424759 2.2317177,19.465639 1.47721,19.698399 0.97662528,19.97916 0.09073536,20.476001 0,21.123122 0,21.123122 c 0.00634107,0.001 1.3062811,0.306841 1.8386912,0.156601 0.3610011,-0.102661 0.608703,-0.451861 0.608703,-0.451861 0,0 0.8579652,0.17612 1.9863762,0.774701 0.5518534,0.292721 1.1683577,0.686502 1.7808614,1.210103 0.022664,0.01934 1.4406638,-0.626282 1.5104156,-0.651922 0.1749296,-0.06432 0.3059117,0.05244 0.3359968,0.109381 0.049288,0.09328 0.066411,0.26822 -0.070332,0.35938 -0.1344027,0.1206 -1.0847435,0.540081 -2.0004385,1.080822 C 5.395353,24.062708 4.7486636,24.444729 4.1929095,24.78439 3.7567957,24.72835 3.5673236,24.71137 3.1576743,24.71563 2.2822261,24.72513 1.7063487,25.490232 1.7063487,26.049973 H 5.111705 c 0.141824,-0.05152 1.565785,-0.342061 3.0038284,-0.629721 1.0453969,-0.209141 2.0982156,-0.416741 2.6710516,-0.529901 0.256884,-0.05076 0.415791,-0.08248 0.437094,-0.08688 0.07637,-0.01722 0.179711,-0.0295 0.273087,-0.121021 0.04679,-0.04588 0.09104,-0.11172 0.128141,-0.20808 0.02646,-0.06564 0.147185,-0.415861 0.147185,-0.415861 l 0.745146,-0.07194 c 0.994609,-0.08428 1.876498,-0.284481 2.668032,-0.537741 1.017252,-0.325441 1.885479,-0.738482 2.652209,-1.105662 0.933658,-0.447601 1.704288,-0.816902 2.372181,-0.846542 -0.107338,0.660161 0.04777,1.173722 0.152866,1.679643 0.100217,0.481821 0.155006,0.956702 -0.105198,1.544643 -1.972113,0 -1.755077,1.329063 -1.755077,1.329063 h 3.420199 c 0,0 0.240961,-0.786482 0.794855,-1.653183 0.254923,-0.399021 0.567276,-0.815242 0.968904,-1.179963 0.08371,-0.07512 0.07627,-0.1545 0.02862,-0.21798 -0.434053,-0.538621 -0.65343,-1.623223 -0.65343,-1.623223 -0.03711,-0.138661 0.130402,-0.230681 0.187532,-0.240221 0.06027,-0.01056 0.222697,-0.01172 0.255903,0.144521 0,0 0.07627,0.752141 0.788713,1.407162 0.450757,0.413181 0.997929,0.738902 1.543522,0.995862 0.656171,0.308981 1.310381,0.518561 1.792983,0.661282 0.551453,0.16296 0.612904,0.34704 0.612904,0.40206 -0.0127,0 -0.209616,0.0095 -0.241341,0.01272 -0.279447,0.03066 -0.600202,0.06666 -0.973905,0.421141 -0.382105,0.362941 -0.301611,0.869822 -0.301611,0.869822 h 2.353138 c 0.306992,0 0.415991,-0.18096 0.522849,-0.526981 0.06885,-0.22218 0.347219,-1.350183 0.366362,-1.427463 0.09201,-0.342841 -0.0043,-0.524881 -0.122881,-0.627481 C 29.575801,23.197567 29.247806,22.960687 28.945315,22.771126 28.454812,22.463746 28.0312,22.280766 28.0312,22.280766 27.97533,21.757064 27.728129,20.879363 27.38227,20.087881 27.178136,19.62074 26.936395,19.183639 26.682632,18.867079 Z M 6.5308653,15.15941 c 0.35474,-0.2119 0.8208389,-0.266 1.2042038,-0.22092 -0.041507,0.693081 -1.0147318,0.876862 -1.2042038,0.22092 z m -3.326823,1.481323 c 0.013682,-0.02962 0.029205,-0.0588 0.046488,-0.08738 0.00284,-0.0047 0.016903,-0.0279 0.020703,-0.033 0.00722,-0.0097 0.022944,-0.0037 0.023924,0.0082 0.013762,0.273021 0.1704488,0.695221 0.9325778,0.790462 0.720922,0.091 1.2629137,-0.03176 1.725492,-0.168241 0.051869,0.124861 0.038087,0.321701 -0.2000338,0.409501 -0.2148764,0.06562 -0.7992553,0.235981 -1.707509,0.13968 -0.8480035,-0.09 -1.0435366,-0.622481 -0.8416424,-1.059262 z M 26.682616,4.9171298 C 27.510396,4.6991494 28.115958,3.8420277 28.048187,2.8663857 27.963512,1.6568833 26.818199,0.37756076 24.101919,0.91404183 23.113372,1.1097022 22.304055,1.3973228 21.527463,1.7140834 20.712285,2.0465641 19.933253,2.4111248 19.020879,2.7351655 18.08136,3.0688661 17.292847,3.2131064 16.679563,3.1610663 16.127909,3.1142662 15.71798,2.9087058 15.467438,2.5394051 15.12656,2.0283041 15.621964,1.512983 15.831559,1.3690627 16.213664,1.1193222 16.557662,0.69310139 16.354408,0 15.988226,0.06370013 15.345257,0.27886056 14.83355,0.68234136 14.410239,1.016042 14.076682,1.478543 14.0638,2.0907242 c 0.02432,0.8370217 0.603322,1.490963 1.566565,1.7216434 0.64639,0.1547003 1.162017,0.2044604 1.7713,0.1247003 0.874568,-0.1144802 1.942409,-0.495801 3.867655,-1.2167225 1.798944,-0.6937413 2.810335,-0.9915819 3.585266,-1.026582 0.486223,-0.02196 0.879449,0.0596 1.315743,0.2117804 0.272806,0.0952 0.47,0.2395205 0.601282,0.4082008 0.156086,0.2006404 0.218777,0.4357209 0.204234,0.6634813 -0.02744,0.4273009 -0.326915,0.8289217 -0.792214,0.9292819 -0.107138,0.02314 -0.223178,0.03026 -0.346738,0.01802 -0.143965,-0.01376 -0.300631,-0.04338 -0.477421,-0.0762 C 24.837503,3.7504475 24.133584,3.6190872 23.038079,3.7397275 22.380848,3.8121076 21.582653,3.975188 20.598206,4.2906486 18.544158,4.9488299 17.011079,5.2124904 15.827579,5.2578705 14.151315,5.3221506 13.17635,4.9484899 12.415581,4.6377493 12.340569,3.9095278 12.165139,3.3078866 11.950162,2.8189456 11.601283,2.0255041 11.148067,1.5288431 10.850076,1.2695825 c 0,0 0.172489,-0.1068802 0.258244,-0.70688138 -0.428693,-0.0857002 -1.034155,0.15556032 -1.034155,0.15556032 0,0 -1.1242103,-0.72168145 -2.6442876,-0.46454093 C 6.8497992,0.35530071 6.5735725,0.51404103 6.4147656,0.77646155 5.2069412,1.2198424 5.1084846,1.2960226 4.8005324,1.473803 4.6003986,1.5997232 4.6174014,1.7679635 4.6174014,1.8103036 c 0,0.09736 0.050789,0.1576603 0.072952,0.1841204 0.031845,0.03704 0.06143,0.0709 0.06143,0.1386203 0.00322,0.3513207 -0.027445,0.3265006 0.080474,0.6048012 0.047668,0.1121602 0.153446,0.1037002 0.2805075,0.06032 0.7971149,-0.2973606 1.4090184,-0.06544 1.4481051,0.4736209 0.031245,0.464841 -0.4021281,0.7985816 -0.9811261,0.8451417 -0.1291218,0.00776 -0.218777,0.01304 -0.2688855,0.01586 -0.095236,0.00634 -0.1588069,0.0148 -0.1481651,0.1259202 0.012302,0.08792 0.1390836,0.4045608 0.1734694,0.494361 0.087115,0.2450405 0.1428042,0.2793606 0.3481989,0.2867606 0.3874656,0.01376 0.8892105,-0.08254 1.0500777,-0.1322803 0,0 -0.016903,0.491001 0.1365431,1.1597623 C 5.5287557,5.5837112 4.5040823,5.4334709 3.3672699,5.4747309 2.2317177,5.515611 1.47721,5.7483715 0.97662528,6.0291321 0.09073536,6.525973 0,7.1730944 0,7.1730944 c 0.00634107,0.00102 1.3062811,0.3068406 1.8386912,0.1566003 0.3610011,-0.1026603 0.608703,-0.4518609 0.608703,-0.4518609 0,0 0.8579652,0.1761203 1.9863762,0.7747015 0.5518534,0.2927206 1.1683577,0.6865014 1.7808614,1.2101024 0.022664,0.01934 1.4406638,-0.6262812 1.5104156,-0.6519213 0.1749296,-0.06432 0.3059117,0.05244 0.3359968,0.1093802 0.049288,0.09328 0.066411,0.2682206 -0.070332,0.3593808 C 7.8563096,8.8000776 6.9059688,9.2195584 5.9902738,9.7602995 5.3953531,10.11268 4.7486637,10.494701 4.1929096,10.834362 c -0.4361138,-0.05604 -0.6255859,-0.07302 -1.0352352,-0.06876 -0.8754482,0.0095 -1.4513256,0.774601 -1.4513256,1.334342 h 3.4053563 c 0.141824,-0.05152 1.565785,-0.34206 3.0038284,-0.629721 1.0453969,-0.20914 2.0982155,-0.416741 2.6710515,-0.529901 0.256884,-0.05076 0.415791,-0.08248 0.437094,-0.08688 0.07637,-0.01722 0.179711,-0.0295 0.273087,-0.121021 0.04679,-0.04588 0.09104,-0.11172 0.128141,-0.20808 0.02646,-0.06564 0.147185,-0.415861 0.147185,-0.415861 l 0.745146,-0.07194 c 0.994609,-0.08428 1.876498,-0.2844805 2.668032,-0.537741 1.017252,-0.3254406 1.885479,-0.7384815 2.652209,-1.1056622 0.933658,-0.4476009 1.704288,-0.8169017 2.372181,-0.8465417 -0.107338,0.6601613 0.04777,1.1737223 0.152866,1.6796434 0.100217,0.4818209 0.155006,0.9567015 -0.105198,1.5446435 -1.972113,0 -1.755077,1.329062 -1.755077,1.329062 h 3.420199 c 0,0 0.240961,-0.786481 0.794855,-1.653183 0.254923,-0.399021 0.567276,-0.8152417 0.968904,-1.1799625 0.08371,-0.07512 0.07627,-0.1545003 0.02862,-0.2179804 -0.434053,-0.5386211 -0.65343,-1.6232232 -0.65343,-1.6232232 -0.03711,-0.1386603 0.130402,-0.2306805 0.187532,-0.2402205 0.06027,-0.01056 0.222697,-0.01172 0.255903,0.1445203 0,0 0.07627,0.7521415 0.788713,1.4071628 0.450757,0.4131808 0.997929,0.7389015 1.543522,0.995862 0.656171,0.3089805 1.310381,0.5185615 1.792983,0.6612815 0.551453,0.16296 0.612904,0.34704 0.612904,0.402061 -0.0127,0 -0.209616,0.0095 -0.241341,0.01272 -0.279447,0.03066 -0.600202,0.06666 -0.973905,0.421141 -0.382105,0.36294 -0.301611,0.869821 -0.301611,0.869821 h 2.353138 c 0.306992,0 0.415991,-0.18096 0.522849,-0.526981 0.06885,-0.22218 0.347219,-1.350183 0.366362,-1.427463 0.09201,-0.3428404 -0.0043,-0.5248808 -0.122881,-0.627481 C 29.575805,9.2475385 29.24781,9.010658 28.945319,8.8210976 28.454816,8.513717 28.031204,8.3307367 28.031204,8.3307367 27.975334,7.8070356 27.728133,6.9293339 27.382274,6.1378523 27.17814,5.6707113 26.936399,5.2336105 26.682636,4.9170498 Z M 6.5308653,1.2093824 C 6.8856053,0.99748199 7.3517042,0.94338189 7.7350691,0.98846198 7.693562,1.6815434 6.7203373,1.8653237 6.5308653,1.2093824 Z m -3.326823,1.481323 c 0.013682,-0.02962 0.029205,-0.0588 0.046488,-0.08738 0.00284,-0.00474 0.016903,-0.0279 0.020703,-0.033 0.00722,-0.0097 0.022944,-0.00374 0.023924,0.00822 0.013762,0.2730205 0.1704488,0.6952214 0.9325778,0.7904615 0.720922,0.091 1.2629137,-0.03176 1.725492,-0.1682403 0.051869,0.1248602 0.038087,0.3217006 -0.2000338,0.4095008 -0.2148764,0.06562 -0.7992553,0.2359805 -1.707509,0.1396803 -0.8480035,-0.09 -1.0435366,-0.6224812 -0.8416424,-1.0592621 z"
           id="path33" />
      </g>
    </g>
  </g>
  <metadata
     id="metadata33">
    <rdf:RDF>
      <cc:Work
         rdf:about="">
        <dc:title>logo-m-vm</dc:title>
      </cc:Work>
    </rdf:RDF>
  </metadata>
</svg>
