<?xml version="1.0" encoding="UTF-8" standalone="no"?>
<svg xmlns="http://www.w3.org/2000/svg" xmlns:xlink="http://www.w3.org/1999/xlink" xmlns:serif="http://www.serif.com/" width="100%" height="100%" viewBox="0 0 111 28" version="1.1" xml:space="preserve" style="fill-rule:evenodd;clip-rule:evenodd;stroke-linejoin:round;stroke-miterlimit:2;">
    <g transform="matrix(1,0,0,1,-18.108,-0.203)">
        <g>
            <g>
                <g>
                    <path d="M108.883,17.227L118.101,0.203L128.599,0.203L113.273,27.678L104.997,27.713L101.059,27.696C102.912,23.71 103.743,19.194 101.499,15.157C99.932,12.337 97.31,10.091 94.163,9.04L89.438,0.203L100.033,0.203L108.883,17.227ZM37.78,17.227L40.993,11.205C44.448,11.56 47.725,11.872 50.823,12.158L42.17,27.678L33.433,27.678L18.108,0.203L28.605,0.203L37.78,17.227ZM41.453,10.359L46.998,0.203L57.495,0.203L51.936,10.169C48.278,10.253 44.748,10.329 41.453,10.359ZM78.725,17.976L62.655,17.976C57.608,17.976 54.827,15.23 54.5,12.526C54.682,12.541 56.429,12.712 56.611,12.726C60.426,13.029 64.454,13.408 68.227,13.878C72.139,14.365 75.664,14.878 78.397,15.544C81.763,16.365 83.819,17.72 84.231,19.387C84.449,20.273 84.204,21.009 83.707,21.831C80.933,26.433 68.46,27.176 64.282,27.678L58.075,27.678L44.639,27.654L48.439,20.607L79.094,20.633C80.401,20.526 80.572,20.21 80.753,19.608C81.006,18.763 80.223,17.961 78.725,17.976ZM67.303,0.203L86.784,0.203L91.1,8.066C87.097,7.372 81.909,7.301 76.514,7.255L68.946,7.255C68.153,7.269 67.236,7.393 67.013,8.167C66.838,8.771 67.144,9.129 67.69,9.203C73.664,9.179 79.508,9.213 84.94,9.58C86.274,9.668 87.282,9.775 88.372,9.895C94.088,10.529 98.44,13.373 99.946,17.233C101.059,20.083 100.742,23.95 98.573,27.678L97.316,27.678C99.526,24.476 99.986,21.12 99.313,18.534C98.187,14.211 93.252,11.111 87.476,10.6C78.487,9.808 69.514,9.858 59.556,10.019C58.358,10.039 55.846,10.059 54.617,10.082C55.782,3.933 60.555,0.262 67.303,0.203Z" style="fill:rgb(222,83,7);"></path>
                </g>
                <path d="M41.208,10.62L42.8,10.788C47.42,11.238 59.714,12.127 69.848,13.323C73.014,13.696 75.912,14.116 78.311,14.678C80.074,15.09 82.196,15.803 83.613,16.968C84.7,17.859 85.473,19.02 85.047,20.8C84.087,24.795 77.151,27.01 70.354,27.607L76.539,27.622L82.956,27.622C84.571,27.06 87.376,25.381 88.648,24.06L92.252,24.05C91.255,25.333 89.811,26.56 87.974,27.622L96.242,27.622C99.11,24.41 99.36,19.969 98.142,17.416C96.539,14.056 92.412,11.745 88.264,11.266C84.352,10.709 80.307,10.524 76.364,10.422C71.645,10.3 66.919,10.332 62.2,10.408C60.075,10.442 57.95,10.487 55.825,10.536C51.516,10.638 47.275,10.631 42.966,10.6L41.208,10.62ZM45.161,10.781C45.748,10.832 48.145,11.025 51.035,11.172L51.162,10.939C48.971,10.884 46.918,10.781 45.161,10.781ZM53.7,11.235L58.858,11.581L59.147,11.046C57.393,10.989 55.568,11.043 53.83,10.994L53.7,11.234L53.7,11.235ZM61.548,11.723C63.404,11.823 65.107,11.916 66.497,12L66.868,11.313L61.865,11.138L61.548,11.723ZM69.168,12.177C69.499,12.203 69.752,12.226 69.914,12.245C71.048,12.366 72.239,12.471 73.456,12.577L74.289,11.602C72.944,11.532 71.548,11.476 70.11,11.427L69.585,11.408L69.168,12.177ZM76.028,12.807C77.646,12.96 79.266,13.137 80.816,13.376L81.817,12.251C80.314,12.045 78.672,11.888 76.92,11.763L76.028,12.807ZM83.195,13.813C84.902,14.184 86.455,14.672 87.737,15.338L89.105,14.138C87.863,13.574 86.375,13.108 84.635,12.735L84.229,12.651L83.195,13.813ZM89.807,16.83C91.722,18.167 91.733,19.734 90.513,21.415L93.638,21.404C94.303,19.013 93.648,16.806 91.36,15.468L89.807,16.83Z" style="fill:rgb(122,123,122);"></path>
            </g>
        </g>
    </g>
</svg>
